<svg width="40" height="40" viewBox="0 0 40 40" fill="none" xmlns="http://www.w3.org/2000/svg">
<path d="M31.6517 3.33334H15.0167C13.165 3.33334 11.6667 4.83167 11.6667 6.68334V16.0783L3.83001 23.815C3.5952 24.0472 3.43468 24.344 3.36881 24.6676C3.30295 24.9912 3.33471 25.3271 3.46006 25.6326C3.58542 25.9382 3.79872 26.1996 4.0729 26.3837C4.34707 26.5678 4.66976 26.6663 5.00001 26.6667V35C5.00001 35.442 5.1756 35.866 5.48816 36.1785C5.80073 36.4911 6.22465 36.6667 6.66668 36.6667H33.3333C33.7754 36.6667 34.1993 36.4911 34.5119 36.1785C34.8244 35.866 35 35.442 35 35V6.68167C35 4.83167 33.5033 3.33334 31.6517 3.33334ZM18.2033 25.185V33.3333H8.33334V24.0533L13.3117 19.1383L18.2033 24.1433V25.185V25.185ZM21.6667 15H18.3333V11.6667H21.6667V15ZM28.3333 28.3333H25V25H28.3333V28.3333ZM28.3333 21.6667H25V18.3333H28.3333V21.6667ZM28.3333 15H25V11.6667H28.3333V15Z" fill="white"/>
<path d="M11.6667 25H15V28.3333H11.6667V25Z" fill="white"/>
</svg>
