<svg width="40" height="40" viewBox="0 0 40 40" fill="none" xmlns="http://www.w3.org/2000/svg">
<path d="M11.5 6.875C11.5 9.28906 9.93125 11.25 8 11.25C6.06687 11.25 4.5 9.28906 4.5 6.875C4.5 4.45859 6.06687 2.5 8 2.5C9.93125 2.5 11.5 4.45859 11.5 6.875ZM13.025 15.3359C11.1687 17.3984 10 20.4063 10 23.75C10 26.4297 10.6938 28.8906 12 30.8203V32.5C12 33.8828 11.1063 35 10 35H6C4.89562 35 4 33.8828 4 32.5V30.4063C1.635 29 0 25.9922 0 22.5C0 17.6641 3.13375 13.75 7 13.75H9C10.4438 13.75 11.8875 14.3359 13.025 15.3359ZM4 19.1953C3.3775 20.0703 3 21.2344 3 22.5C3 23.7656 3.3775 24.9297 4 25.8047V19.1953V19.1953ZM28 32.5V30.8203C29.25 28.8906 30 26.4297 30 23.75C30 20.4063 28.8313 17.3984 26.975 15.3359C28.1125 14.3359 29.5 13.75 31 13.75H33C36.8688 13.75 40 17.6641 40 22.5C40 25.9922 38.3625 29 36 30.4063V32.5C36 33.8828 35.1063 35 34 35H30C28.8937 35 28 33.8828 28 32.5ZM36 25.8047C36.5688 24.9297 37 23.7656 37 22.5C37 21.2344 36.5688 20.0703 36 19.1953V25.8047V25.8047ZM35.5 6.875C35.5 9.28906 33.9312 11.25 32 11.25C30.0688 11.25 28.5 9.28906 28.5 6.875C28.5 4.45859 30.0688 2.5 32 2.5C33.9312 2.5 35.5 4.45859 35.5 6.875ZM16 7.5C16 4.73828 17.7938 2.5 20 2.5C22.2062 2.5 24 4.73828 24 7.5C24 10.2578 22.2062 12.5 20 12.5C17.7938 12.5 16 10.2578 16 7.5ZM28 23.75C28 27.2422 26.3625 30.25 24 31.6563V35C24 36.3828 23.1063 37.5 22 37.5H18C16.8937 37.5 16 36.3828 16 35V31.6563C13.6375 30.25 12 27.2422 12 23.75C12 18.9141 15.1312 15 19 15H21C24.8688 15 28 18.9141 28 23.75ZM16 27.0547V20.4453C15.375 21.3203 15 22.4844 15 23.75C15 25.0156 15.375 26.1797 16 27.0547V27.0547ZM24 20.4453V27.0547C24.5688 26.1719 25 25.0156 25 23.75C25 22.4844 24.5688 21.3203 24 20.4453Z" fill="white"/>
</svg>
