<svg width="40" height="40" viewBox="0 0 40 40" fill="none" xmlns="http://www.w3.org/2000/svg">
<path d="M3.33331 20L11.6666 26.6667V21.6667H26.6666V18.3333H11.6666V13.3333L3.33331 20Z" fill="#38006B"/>
<path d="M21.6683 4.99835C19.6975 4.99288 17.7452 5.37853 15.9246 6.13295C14.1039 6.88738 12.451 7.99557 11.0616 9.39335L13.4183 11.75C15.6216 9.54668 18.5516 8.33168 21.6683 8.33168C24.785 8.33168 27.715 9.54668 29.9183 11.75C32.1216 13.9533 33.3366 16.8833 33.3366 20C33.3366 23.1167 32.1216 26.0467 29.9183 28.25C27.715 30.4534 24.785 31.6683 21.6683 31.6683C18.5516 31.6683 15.6216 30.4534 13.4183 28.25L11.0616 30.6067C13.8933 33.44 17.66 35.0017 21.6683 35.0017C25.6766 35.0017 29.4433 33.44 32.275 30.6067C35.1083 27.775 36.67 24.0083 36.67 20C36.67 15.9917 35.1083 12.225 32.275 9.39335C30.8856 7.99557 29.2328 6.88738 27.4121 6.13295C25.5914 5.37853 23.6391 4.99288 21.6683 4.99835V4.99835Z" fill="#38006B"/>
</svg>
