<svg width="40" height="40" viewBox="0 0 40 40" fill="none" xmlns="http://www.w3.org/2000/svg">
<path d="M15.1875 35.0157V33.9532C15.211 33.8673 15.25 33.7892 15.2657 33.7032C15.6094 31.4689 17.4688 29.7032 19.6484 29.5548C22.0859 29.3829 24.1484 30.7735 24.8203 33.0391C24.9062 33.336 24.9687 33.6485 25.0469 33.9532V35.0157C25.0234 35.086 24.9844 35.1485 24.9766 35.2266C24.6406 37.2891 23.1562 38.8594 21.125 39.3047C20.9688 39.336 20.8125 39.3828 20.6562 39.4219H19.5937C19.5234 39.3985 19.4531 39.3594 19.3828 39.3516C17.3516 39.0235 15.8047 37.5781 15.3359 35.5703C15.2891 35.375 15.2344 35.1953 15.1875 35.0157H15.1875ZM25.0469 4.98452L25.0469 6.0471C25.0234 6.13303 24.9844 6.21116 24.9766 6.2971C24.625 8.5471 22.7578 10.3049 20.5547 10.4455C18.125 10.6018 16.0703 9.19553 15.4062 6.9221C15.3203 6.633 15.2578 6.33616 15.1875 6.04706V4.98456C15.2109 4.91425 15.25 4.85175 15.2656 4.78143C15.6406 2.75018 16.8203 1.42206 18.7891 0.789246C19.0469 0.703308 19.3203 0.656433 19.5859 0.586121H20.6484C20.7187 0.609558 20.7891 0.648621 20.8594 0.656433C22.8984 0.992371 24.4375 2.42987 24.9062 4.43768C24.9532 4.62518 25 4.80487 25.0469 4.98452ZM25.0469 19.4689V20.5314C25.0234 20.6174 24.9844 20.6955 24.9687 20.7814C24.6172 23.0236 22.6797 24.8283 20.4922 24.9221C18.0312 25.0314 15.9453 23.5471 15.3594 21.258C15.2969 21.0158 15.2422 20.7736 15.1875 20.5314V19.4689C15.2109 19.383 15.25 19.3049 15.2656 19.2189C15.6094 16.9767 17.5547 15.172 19.7422 15.0705C22.2031 14.9533 24.2891 16.4455 24.875 18.7346C24.9375 18.9846 24.9922 19.2267 25.0469 19.4689V19.4689Z" fill="white"/>
</svg>
