<svg width="40" height="40" viewBox="0 0 40 40" fill="none" xmlns="http://www.w3.org/2000/svg">
<g clip-path="url(#clip0_31_2)">
<path d="M27.5652 19.5632L27.546 19.6136C27.552 19.5984 27.5568 19.5828 27.5628 19.5676L27.5652 19.5632V19.5632ZM25.5392 29.3416L24.986 30.0256C25.734 30.116 26.458 30.222 27.136 30.3504L24.9444 30.9996L27.8696 31.7776L30.05 31.09C31.3892 31.5392 33.2436 32.0884 33.858 32.7128H29.486L29.9204 33.9832H34.4572C34.4436 34.6992 33.1636 35.2808 31.9412 35.752L28.8408 35.0816L25.9196 36.1284L29.0396 36.8404C27.218 37.3364 24.1596 37.638 21.6276 37.7768L21.5212 36.3208H18.4788L18.372 37.7768C15.84 37.638 12.782 37.3368 10.96 36.8408L14.0804 36.1284L11.1592 35.0816L8.05836 35.752C6.85356 35.386 5.55636 34.6992 5.54276 33.9832H10.08L10.5144 32.7128H6.14236C6.75676 32.0884 8.61116 31.5392 9.95036 31.09L12.1308 31.7776L15.056 30.9996L12.8644 30.3504C13.5721 30.2195 14.284 30.1119 14.9988 30.0276L14.4536 29.3424C8.53956 29.9572 3.62436 31.2664 2.33556 33.334C0.279963 36.6292 7.86316 39.944 19.748 39.9956C19.9248 40.0044 20.0992 39.998 20.264 39.9956C32.142 39.9412 39.7184 36.6276 37.6644 33.334C36.3748 31.2656 31.4564 29.956 25.5388 29.3416H25.5392Z" fill="white"/>
<path d="M19.942 -2.19501e-05C18.8381 0.0152228 17.7847 0.464443 17.0095 1.25045C16.2344 2.03646 15.7999 3.09605 15.8 4.19998C15.8 5.31389 16.2425 6.38217 17.0301 7.16983C17.8178 7.95748 18.8861 8.39998 20 8.39998C21.1139 8.39998 22.1822 7.95748 22.9698 7.16983C23.7575 6.38217 24.2 5.31389 24.2 4.19998C24.2 3.08607 23.7575 2.01778 22.9698 1.23013C22.1822 0.442477 21.1139 -2.19501e-05 20 -2.19501e-05C19.9806 -0.000155444 19.9613 -0.000155444 19.942 -2.19501e-05V-2.19501e-05ZM19.9192 9.43678C16.7856 9.43758 13.6808 10.784 14.0072 13.4752L14.8072 19.3252C14.9476 20.3544 15.6432 22 16.682 22H16.756L17.6068 31.8124C17.6436 32.2544 17.9636 32.6124 18.4068 32.6124H21.6068C22.05 32.6124 22.37 32.2544 22.4068 31.8124L23.2576 22.0004H23.332C24.3708 22.0004 25.066 20.3544 25.2068 19.3252L26.0068 13.4752C26.2164 10.7816 23.0532 9.43638 19.9192 9.43678V9.43678ZM-63.7 24.7268L-63.7192 24.7772C-63.7128 24.762 -63.7084 24.7468 -63.702 24.7312C-63.702 24.7296 -63.7004 24.7284 -63.6996 24.7272L-63.7 24.7268Z" fill="white"/>
</g>
<defs>
<clipPath id="clip0_31_2">
<rect width="40" height="40" fill="white"/>
</clipPath>
</defs>
</svg>
