<svg width="40" height="40" viewBox="0 0 40 40" fill="none" xmlns="http://www.w3.org/2000/svg">
<path d="M20 25C22.7614 25 25 22.7614 25 20C25 17.2386 22.7614 15 20 15C17.2386 15 15 17.2386 15 20C15 22.7614 17.2386 25 20 25Z" fill="white"/>
<path d="M38.675 19.575C37.2048 15.7721 34.6525 12.4833 31.3335 10.1151C28.0145 7.74694 24.0744 6.40322 20 6.25C15.9257 6.40322 11.9855 7.74694 8.66652 10.1151C5.34754 12.4833 2.79522 15.7721 1.32502 19.575C1.22573 19.8496 1.22573 20.1504 1.32502 20.425C2.79522 24.2279 5.34754 27.5167 8.66652 29.8849C11.9855 32.2531 15.9257 33.5968 20 33.75C24.0744 33.5968 28.0145 32.2531 31.3335 29.8849C34.6525 27.5167 37.2048 24.2279 38.675 20.425C38.7743 20.1504 38.7743 19.8496 38.675 19.575V19.575ZM20 28.125C18.393 28.125 16.8222 27.6485 15.486 26.7557C14.1499 25.8629 13.1085 24.594 12.4935 23.1093C11.8785 21.6247 11.7176 19.991 12.0311 18.4149C12.3446 16.8388 13.1185 15.3911 14.2548 14.2548C15.3911 13.1185 16.8388 12.3446 18.4149 12.0311C19.991 11.7176 21.6247 11.8785 23.1093 12.4935C24.594 13.1084 25.8629 14.1498 26.7557 15.486C27.6485 16.8221 28.125 18.393 28.125 20C28.1217 22.1539 27.2646 24.2186 25.7416 25.7416C24.2186 27.2646 22.1539 28.1217 20 28.125V28.125Z" fill="white"/>
</svg>
